<?xml version="1.0" encoding="UTF-8" standalone="no"?>
<!-- Created with Inkscape (http://www.inkscape.org/) -->

<svg
   xmlns:dc="http://purl.org/dc/elements/1.1/"
   xmlns:cc="http://creativecommons.org/ns#"
   xmlns:rdf="http://www.w3.org/1999/02/22-rdf-syntax-ns#"
   xmlns:svg="http://www.w3.org/2000/svg"
   xmlns="http://www.w3.org/2000/svg"
   xmlns:sodipodi="http://sodipodi.sourceforge.net/DTD/sodipodi-0.dtd"
   xmlns:inkscape="http://www.inkscape.org/namespaces/inkscape"
   width="800px"
   height="600px"
   id="svg2985"
   version="1.1"
   inkscape:version="0.48.2 r9819"
   sodipodi:docname="stuffr.png">
  <defs
     id="defs2987" />
  <sodipodi:namedview
     id="base"
     pagecolor="#ffffff"
     bordercolor="#666666"
     borderopacity="1.0"
     inkscape:pageopacity="0.0"
     inkscape:pageshadow="2"
     inkscape:zoom="0.84852814"
     inkscape:cx="154.2513"
     inkscape:cy="328.05118"
     inkscape:current-layer="layer1"
     inkscape:document-units="px"
     showgrid="false"
     inkscape:window-width="667"
     inkscape:window-height="690"
     inkscape:window-x="683"
     inkscape:window-y="0"
     inkscape:window-maximized="0" />
  <metadata
     id="metadata2990">
    <rdf:RDF>
      <cc:Work
         rdf:about="">
        <dc:format>image/svg+xml</dc:format>
        <dc:type
           rdf:resource="http://purl.org/dc/dcmitype/StillImage" />
        <dc:title></dc:title>
      </cc:Work>
    </rdf:RDF>
  </metadata>
  <g
     id="layer1"
     inkscape:label="Layer 1"
     inkscape:groupmode="layer">
    <path
       style="fill:none;stroke:#000000;stroke-width:0.73077667px;stroke-linecap:butt;stroke-linejoin:miter;stroke-opacity:1"
       d="m 41.639574,532.46045 -3.51035,8.45175 -5.26552,13.5228 6.14311,18.59385 11.40863,0 18.42933,-4.22588 6.14311,-5.91622 5.26552,-3.3807 11.40863,2.53552 10.531046,-8.45174 6.14311,-10.14211 7.89829,6.7614 -1.75518,1.69035 12.28622,-13.5228 41.24659,-32.11665 -4.38793,-16.9035 3.51034,-6.76139 11.40864,0 11.40863,-4.22588 2.63276,12.67762 0,6.7614 -21.06209,22.81973 3.51034,1.69035 2.63277,0.84517 1.75517,-7.60657 18.42933,-16.9035 27.2052,-31.27148 14.04139,-25.35524 -12.28622,-10.98728 -1.75517,-1.69035 -1.75517,-16.9035 1.75517,-5.91623 4.38794,-10.1421 12.28621,-15.21315 -25.45002,0 -37.73624,-1.69035 -21.06209,1.69035 -24.57244,0.84518 -35.103486,5.91622 -6.14311,5.91623 7.89829,11.83245 10.531036,4.22588 -0.87758,14.36797 -2.63277,4.22587 -7.898276,11.83245 -16.67415,67.61401 -14.91898,-4.22588 -18.42933,-1.69035 -11.40863,1.69035 7.02069,23.6649 z"
       id="path3009"
       inkscape:connector-curvature="0" />
    <path
       style="fill:none;stroke:#000000;stroke-width:0.66313756px;stroke-linecap:butt;stroke-linejoin:miter;stroke-opacity:1"
       d="m 322.26671,287.0108 14.14213,-11.29421 2.20829,-32.97395 27.20151,25.41198 c 12.02767,24.8811 18.12205,49.12951 12.62341,56.75394 l 38.61279,-8.22521 -5.19788,38.65848 5.19788,4.11261 1.4851,15.62789 -16.33618,4.11261 11.13831,11.51529 -2.97022,14.80538 -11.13831,18.91798 4.45533,59.2215 -20.04895,9.87025 c 7.52908,-7.94606 15.73703,-16.05922 5.94043,-19.7405 l -41.583,4.1126 5.94043,19.7405 -66.82982,0 c -20.3038,-5.48347 -9.90031,-10.96694 0.74255,-16.45041 l 22.27661,4.93512 -4.45532,-37.01344 -44.55322,-11.51529 c -23.29905,-15.30666 -19.33661,-33.79199 -5.19788,-53.46386 l 8.91065,-20.56301 23.01916,-12.33782 -2.97022,-9.87025 -6.68298,-4.93513 13.36596,-13.16034 c -12.33857,-7.94414 -10.60137,-7.9433 0.74256,-11.51528 l -5.94043,-4.93513 -5.94042,-0.82252 14.85106,0 8.1681,-10.69277 8.91064,2.46756 c 3.82129,-12.3583 2.91362,-14.64884 9.91193,-10.75457 z"
       id="path3011"
       inkscape:connector-curvature="0"
       sodipodi:nodetypes="cccccccccccccccccccccccccccccccccccc" />
    <path
       style="fill:none;stroke:#000000;stroke-width:1px;stroke-linecap:butt;stroke-linejoin:miter;stroke-opacity:1"
       d="m 340.58977,229.94745 32.99831,20.03469 4.71405,15.32065 c 15.6117,10.6066 9.41155,21.21321 7.07107,31.81981 l 4.71404,16.49915 43.60492,-7.07106 -2.35702,27.10576 2.35702,14.14213 1.17851,16.49916 -2.35702,14.14214 -5.89256,17.67766 40.06939,2.35703 47.14045,31.8198 28.28427,-10.6066 -14.14214,-20.03469 34.17683,11.78511 8.24958,-10.6066 c -12.24002,-32.37336 19.91576,-65.07768 -3.53553,-106.06602 32.94818,18.86665 44.04154,15.69189 51.8545,-9.42809 l 5.89255,-37.71236 -63.63961,-54.21152 -1.17851,42.42641 -11.78511,-47.14045 9.42809,-17.67767 -23.57023,-2.35703 -2.35702,18.85619 -20.03469,-15.32065 -12.96363,11.78511 c -19.24902,-1.17851 -11.85563,-0.4905 -29.46278,2.35703 l 2.35702,22.3917 c -5.17131,22.86152 -10.5754,17.23529 -18.85618,5.89257 l -4.71405,-29.46279 -50.67598,10.6066 -27.10576,-11.78511 z"
       id="path3013"
       inkscape:connector-curvature="0"
       sodipodi:nodetypes="ccccccccccccccccccccccccccccccccccc" />
    <path
       style="fill:none;stroke:#000000;stroke-width:1px;stroke-linecap:butt;stroke-linejoin:miter;stroke-opacity:1"
       d="m 378.30212,68.491403 15.32064,5.89256 -32.99832,60.104067 c -0.0659,15.63537 3.56897,33.42961 18.85619,30.64129 -9.58386,21.05744 -59.17862,25.6742 -54.21153,61.28259 8.90661,15.03463 -5.55862,38.32267 -9.42809,47.14046 -17.54479,-8.83073 -2.66695,-22.29298 -35.35533,8.24957 -0.93218,-27.32264 -14.1386,-63.4126 4.71404,-76.60323 18.4153,-55.57296 64.3356,-63.93022 93.1024,-136.707307 z"
       id="path3021"
       inkscape:connector-curvature="0"
       sodipodi:nodetypes="ccccccccc" />
    <path
       style="fill:none;stroke:#000000;stroke-width:1px;stroke-linecap:butt;stroke-linejoin:miter;stroke-opacity:1"
       d="m 397.15831,10.744349 -16.49916,47.140452 34.17683,10.606602 -25.92725,71.889197 8.24958,20.03468 -17.67767,17.67767 15.32065,9.42809 17.67767,-21.2132 c 22.86852,12.05052 43.50866,11.84496 60.10407,-10.6066 l -7.07107,-17.67767 12.96363,0 3.53553,14.14214 88.38835,2.35702 16.49916,21.2132 4.71404,-4.71404 -14.14213,-18.85618 c -16.85088,-29.19973 -37.26586,-93.407379 9.42809,-96.637932 l 5.89256,-27.10576 C 531.40056,24.895563 464.76319,20.700747 397.15831,10.744349 z"
       id="path3023"
       inkscape:connector-curvature="0"
       sodipodi:nodetypes="ccccccccccccccccccc" />
    <path
       style="fill:none;stroke:#000000;stroke-width:1px;stroke-linecap:butt;stroke-linejoin:miter;stroke-opacity:1"
       d="m 1.1785113,530.46783 12.9636247,-35.35534 38.890873,-1.17851 c -2.634237,-42.70362 2.652596,-77.48617 5.892556,-114.31559 l 51.854495,-7.07107 c -5.5107,-31.65469 36.73066,-48.41277 108.42304,-232.16673 l -60.10407,214.48906 c 7.07107,-4.21089 14.14213,-8.5175 21.2132,-3.53554 C 205.51398,204.92623 273.80746,118.77455 312.3055,-1.0407642 L -1.1785113,0.13774714 z"
       id="path3025"
       inkscape:connector-curvature="0"
       sodipodi:nodetypes="ccccccccccc" />
  </g>
</svg>
